<?xml version="1.0" encoding="utf-8"?>
<!-- Generator: Adobe Illustrator 26.5.0, SVG Export Plug-In . SVG Version: 6.00 Build 0)  -->
<svg version="1.1" id="Layer_1" xmlns="http://www.w3.org/2000/svg" xmlns:xlink="http://www.w3.org/1999/xlink" x="0px" y="0px"
	 viewBox="0 0 512 512" style="enable-background:new 0 0 512 512;" xml:space="preserve">
<style type="text/css">
	.st0{fill:#1D427C;}
	.st1{fill:#EC8023;}
	.st2{fill:#FFFFFF;}
	.st3{fill:#F19320;}
</style>
<g id="XMLID_1_">
	<polygon id="XMLID_3_" class="st0" points="205.95,275.23 210.58,275.23 221.1,294.58 221.24,294.58 221.24,275.23 224.74,275.23 
		224.74,299.21 220.25,299.21 209.46,279.58 209.32,279.58 209.32,299.21 205.95,299.21 	"/>
	<path id="XMLID_6_" class="st0" d="M231.47,285.75c1.26-1.12,3.22-1.82,5.05-1.82c3.22,0,4.35,1.54,4.35,4.63
		c-1.26-0.14-2.1-0.14-3.51-0.14c-3.37,0-8.13,1.4-8.13,5.75c0,3.79,2.66,5.47,6.45,5.47c2.94,0,4.63-1.68,5.47-2.66l0,0v2.24h3.08
		c-0.14-0.56-0.14-1.4-0.14-3.51v-7.29c0-4.77-1.96-7.29-7.01-7.29c-2.24,0-4.21,0.7-5.75,1.68L231.47,285.75z M240.87,292.48
		c0,2.66-1.68,4.63-4.91,4.63c-1.4,0-3.22-0.98-3.22-2.8c0-3.08,4.35-3.37,6.03-3.37c0.7,0,1.4,0,2.1,0V292.48z"/>
	<path id="XMLID_7_" class="st0" d="M258.81,284.35h-4.63v9.53c0,1.96,1.26,3.08,2.66,3.08c0.98,0,1.68-0.28,2.24-0.56v2.8
		c-0.7,0.14-1.68,0.42-2.8,0.42c-3.37,0-5.33-1.54-5.33-5.05v-10.24h-3.93v-2.66h3.93v-4.07l3.22-0.98v5.05h4.63V284.35
		L258.81,284.35z"/>
	<path id="XMLID_10_" class="st0" d="M266.81,274.25h-3.65v3.65h3.65V274.25z M263.3,299.21h3.22v-17.53h-3.22V299.21z"/>
	<path id="XMLID_13_" class="st0" d="M271.29,290.52c0,5.05,3.65,9.11,8.97,9.11c5.19,0,8.83-4.21,8.83-9.11
		c0-5.33-3.51-9.11-8.83-9.11S271.29,285.19,271.29,290.52 M274.8,290.52c0-3.37,1.96-6.59,5.47-6.59c3.37,0,5.47,3.22,5.47,6.59
		c0,3.08-1.68,6.59-5.47,6.59C276.48,297.11,274.8,293.6,274.8,290.52"/>
	<path id="XMLID_14_" class="st0" d="M293.45,281.82h3.08v2.8l0,0c0.98-1.96,3.37-3.22,5.75-3.22c4.49,0,6.59,2.8,6.59,7.57v10.38
		h-3.22v-9.11c0-4.07-0.84-6.03-3.65-6.31c-3.65,0-5.33,2.94-5.33,7.15v8.13h-3.22L293.45,281.82L293.45,281.82z"/>
	<path id="XMLID_17_" class="st0" d="M315.46,285.75c1.26-1.12,3.22-1.82,5.05-1.82c3.22,0,4.35,1.54,4.35,4.63
		c-1.26-0.14-2.1-0.14-3.37-0.14c-3.37,0-8.13,1.4-8.13,5.75c0,3.79,2.66,5.47,6.45,5.47c2.94,0,4.63-1.68,5.47-2.66l0,0v2.24h3.08
		c0-0.56-0.14-1.4-0.14-3.51v-7.29c0-4.77-1.96-7.29-7.01-7.29c-2.24,0-4.21,0.7-5.75,1.68L315.46,285.75z M324.86,292.48
		c0,2.66-1.68,4.63-4.91,4.63c-1.54,0-3.22-0.98-3.22-2.8c0-3.08,4.35-3.37,6.03-3.37c0.7,0,1.4,0,2.1,0V292.48L324.86,292.48z"/>
	<rect id="XMLID_18_" x="333.97" y="273.55" class="st0" width="3.22" height="25.8"/>
	<path id="XMLID_19_" class="st0" d="M370.71,289.39c0,6.73-3.37,10.38-9.25,10.38s-9.25-3.65-9.25-10.38v-14.02h3.51v13.6
		c0,4.63,1.4,7.71,5.89,7.71c4.49,0,5.89-3.22,5.89-7.71v-13.6h3.51L370.71,289.39L370.71,289.39z"/>
	<path id="XMLID_20_" class="st0" d="M376.6,281.82h3.08v2.8l0,0c0.98-1.96,3.37-3.22,5.75-3.22c4.49,0,6.59,2.8,6.59,7.57v10.38
		h-3.22v-9.11c0-4.07-0.84-6.03-3.79-6.31c-3.65,0-5.33,2.94-5.33,7.15v8.13h-3.08V281.82z"/>
	<path id="XMLID_23_" class="st0" d="M401.41,277.9h-3.65v-3.65h3.65V277.9z M397.91,281.82h3.22v17.53h-3.22V281.82z"/>
	<polygon id="XMLID_24_" class="st0" points="414.87,299.21 410.95,299.21 404.64,281.68 408.28,281.68 413.05,295.98 
		413.05,295.98 417.96,281.68 421.18,281.68 	"/>
	<path id="XMLID_27_" class="st0" d="M437.73,295.28c-0.84,0.7-3.22,1.68-5.33,1.68c-3.08,0-5.75-2.38-5.75-5.89h12.48
		c0-5.61-1.82-9.96-7.71-9.96c-4.91,0-8.27,3.65-8.27,8.83c0,5.75,2.8,9.53,9.11,9.53c2.94,0,4.35-0.7,5.47-1.12V295.28z
		 M426.51,288.83c0.28-2.24,1.54-4.91,4.77-4.91c2.8,0,4.35,2.24,4.35,4.91H426.51z"/>
	<path id="XMLID_28_" class="st0" d="M443.34,281.82h3.08v2.66h0.14c0.84-1.82,2.66-3.08,4.63-3.08c0.98,0,1.4,0.14,2.1,0.28v2.94
		c-0.56-0.28-1.26-0.28-1.82-0.28c-2.94,0-4.77,2.8-4.77,7.15v7.99h-3.22L443.34,281.82L443.34,281.82z"/>
	<path id="XMLID_29_" class="st0" d="M455.4,295.84c1.26,0.84,3.08,1.26,4.07,1.26c1.54,0,3.37-0.56,3.37-2.52
		c0-3.22-7.57-2.94-7.57-7.85c0-3.65,2.66-5.33,6.17-5.33c1.54,0,2.8,0.28,4.07,0.7l-0.28,2.8c-0.7-0.42-2.66-0.84-3.37-0.84
		c-1.68,0-3.08,0.7-3.08,2.1c0,3.51,7.57,2.52,7.57,8.13c0,3.79-2.94,5.47-6.17,5.47c-1.68,0-3.37-0.14-4.77-0.98L455.4,295.84z"/>
	<path id="XMLID_32_" class="st0" d="M473.91,277.9h-3.65v-3.65h3.65V277.9z M470.54,281.82h3.22v17.53h-3.22V281.82z"/>
	<path id="XMLID_33_" class="st0" d="M488.91,284.35h-4.63v9.53c0,1.96,1.26,3.08,2.66,3.08c0.98,0,1.68-0.28,2.24-0.56v2.8
		c-0.7,0.14-1.68,0.42-2.8,0.42c-3.37,0-5.33-1.54-5.33-5.05v-10.24h-3.93v-2.66h3.93v-4.07l3.22-0.98v5.05h4.63V284.35z"/>
	<path id="XMLID_34_" class="st0" d="M491.71,303.98c0.42,0.14,0.98,0.28,1.54,0.28c2.94,0,3.79-3.93,3.79-4.35
		s-0.42-1.26-0.56-1.82l-5.89-16.41h3.51l4.77,14.44l0,0l4.77-14.44h3.22l-6.45,17.95c-1.26,3.37-2.52,7.29-6.73,7.29
		c-0.98,0-1.68-0.14-2.24-0.28L491.71,303.98z"/>
	<path id="XMLID_37_" class="st0" d="M204.41,331.18c0,5.05,3.65,9.11,8.97,9.11c5.19,0,8.83-4.21,8.83-9.11
		c0-5.33-3.65-9.11-8.83-9.11C208.06,321.92,204.41,325.85,204.41,331.18 M207.92,331.18c0-3.37,1.96-6.59,5.47-6.59
		c3.37,0,5.47,3.22,5.47,6.59c0,3.08-1.68,6.59-5.47,6.59C209.6,337.63,207.92,334.26,207.92,331.18"/>
	<path id="XMLID_38_" class="st0" d="M228.67,325.01h-4.07v-2.66h4.07v-1.68c0-4.21,1.12-7.01,5.89-7.01c0.84,0,1.54,0.14,2.1,0.28
		l-0.14,2.66c-0.42-0.14-0.98-0.14-1.54-0.14c-2.8,0-3.08,1.82-3.08,4.21v1.82h4.63v2.66h-4.63v14.86h-3.22L228.67,325.01
		L228.67,325.01z"/>
	<path id="XMLID_39_" class="st0" d="M259.8,319.54c-1.68-0.7-2.66-0.98-4.49-0.98c-1.96,0-4.21,0.7-4.21,3.22
		c0,4.63,10.38,3.51,10.38,11.5c0,5.05-3.93,7.15-8.69,7.15c-1.68,0-3.37-0.42-4.91-0.98l0.28-3.22c1.12,0.42,3.22,1.12,5.05,1.12
		c1.96,0,4.77-1.12,4.77-3.93c0-5.33-10.38-3.93-10.38-11.36c0-4.21,3.37-6.59,7.71-6.59c1.54,0,3.51,0.28,5.05,0.84L259.8,319.54z"
		/>
	<path id="XMLID_42_" class="st0" d="M269.61,318.42h-3.65v-3.65h3.65V318.42z M266.25,322.34h3.22v17.53h-3.22V322.34z"/>
	<path id="XMLID_43_" class="st0" d="M275.36,322.34h3.08v2.8l0,0c0.98-1.96,3.37-3.22,5.75-3.22c4.49,0,6.59,2.8,6.59,7.57v10.38
		h-3.22v-9.11c0-4.07-0.84-6.03-3.65-6.31c-3.65,0-5.33,2.94-5.33,7.15v8.13h-3.22L275.36,322.34L275.36,322.34z"/>
	<path id="XMLID_46_" class="st0" d="M311.82,322.34h-2.94v2.66h-0.14c-0.98-1.82-2.66-3.08-5.75-3.08c-5.33,0-7.85,4.77-7.85,9.25
		c0,4.49,2.52,8.55,7.43,8.55c2.24,0,4.49-0.84,5.89-2.66l0,0v1.68c0,3.65-1.96,6.03-5.47,6.03c-2.38,0-3.79-0.42-6.31-1.54
		l-0.28,2.94c2.8,0.98,4.49,1.26,6.31,1.26c6.31,0,8.97-3.08,8.97-8.41v-16.69H311.82z M303.54,337.35c-3.08,0-4.91-2.94-4.91-6.17
		c0-2.94,1.68-6.59,4.91-6.59c3.51,0,5.05,3.08,5.05,6.73C308.59,334.54,306.49,337.35,303.54,337.35"/>
	<path id="XMLID_49_" class="st0" d="M318.27,326.41c1.26-1.12,3.22-1.82,5.05-1.82c3.22,0,4.35,1.54,4.35,4.63
		c-1.26-0.14-2.1-0.14-3.37-0.14c-3.37,0-8.13,1.4-8.13,5.75c0,3.79,2.66,5.47,6.45,5.47c2.94,0,4.63-1.68,5.47-2.66l0,0v2.24h3.08
		c0-0.56-0.14-1.4-0.14-3.51v-7.29c0-4.77-2.1-7.29-7.01-7.29c-2.24,0-4.21,0.7-5.75,1.68L318.27,326.41z M327.8,333.14
		c0,2.66-1.68,4.63-4.91,4.63c-1.54,0-3.22-0.98-3.22-2.8c0-3.08,4.35-3.37,6.03-3.37c0.7,0,1.4,0,2.1,0V333.14L327.8,333.14z"/>
	<path id="XMLID_52_" class="st0" d="M336.49,347.16h3.22v-9.67l0,0c0.98,1.68,2.8,2.8,5.89,2.8c5.33,0,7.57-4.63,7.57-9.53
		c0-4.77-2.52-8.83-7.57-8.83c-3.08,0-5.05,1.54-5.89,2.94l0,0v-2.52h-3.08v24.82H336.49z M349.67,331.04
		c0.14,2.8-1.4,6.59-4.91,6.59c-3.65,0-5.19-3.65-5.19-6.59c0-3.22,1.68-6.59,5.19-6.59C348.41,324.59,349.67,327.95,349.67,331.04"
		/>
	<path id="XMLID_55_" class="st0" d="M356.26,331.18c0,5.05,3.65,9.11,8.97,9.11c5.19,0,8.83-4.21,8.83-9.11
		c0-5.33-3.65-9.11-8.83-9.11C359.77,321.92,356.26,325.85,356.26,331.18 M359.63,331.18c0-3.37,1.96-6.59,5.47-6.59
		c3.37,0,5.47,3.22,5.47,6.59c0,3.08-1.68,6.59-5.47,6.59C361.31,337.63,359.63,334.26,359.63,331.18"/>
	<path id="XMLID_56_" class="st0" d="M378.42,322.34h3.08v2.66l0,0c0.84-1.82,2.66-3.08,4.63-3.08c0.98,0,1.4,0.14,2.1,0.28v2.94
		c-0.56-0.28-1.26-0.28-1.82-0.28c-2.94,0-4.77,2.8-4.77,7.15v7.99h-3.22L378.42,322.34L378.42,322.34z"/>
	<path id="XMLID_59_" class="st0" d="M405.2,335.95c-0.84,0.7-3.22,1.82-5.33,1.82c-3.08,0-5.75-2.38-5.75-5.89h12.48
		c0-5.61-1.82-9.96-7.71-9.96c-4.91,0-8.27,3.65-8.27,8.83c0,5.75,2.8,9.53,9.11,9.53c2.94,0,4.35-0.7,5.47-1.12V335.95z
		 M393.98,329.5c0.28-2.24,1.54-4.91,4.77-4.91c2.8,0,4.35,2.24,4.35,4.91H393.98z"/>
	<path id="XMLID_60_" class="st0" d="M428.05,227.42c6.59,6.03,19.49,11.64,35.33,11.92c13.88,0.28,25.1-3.93,25.8-15.42
		c1.54-24.96-62.4-15-59.87-57.07c1.26-21.03,22.15-28.04,44.73-27.62c12.2,0.14,24.4,3.08,30.99,6.45v15
		c-8.13-5.61-19.49-9.11-28.88-9.25c-14.3-0.28-25.66,2.38-25.8,12.76c-0.42,21.73,64.08,16.55,61.55,58.33
		c-1.4,23.42-24.26,30.71-48.09,30.29c-13.74-0.14-27.2-2.94-35.61-7.29L428.05,227.42z"/>
	<path id="XMLID_61_" class="st0" d="M367.62,252.8c-29.73,0-46.83-13.32-46.83-40.8v-69.55h22.29v69.55
		c0,17.11,8.13,27.34,24.54,27.34c16.27,0,24.54-10.38,24.54-27.34v-69.55h22.29v69.55C414.31,239.48,397.21,252.8,367.62,252.8"/>
	<path id="XMLID_62_" class="st0" d="M284.61,142.45v78.38l-51.04-72.91c-2.38-3.37-6.45-5.61-10.8-5.61h-16.83v106.84h14.86v-78.52
		l50.9,72.63c2.38,3.51,6.45,5.75,11.08,5.75h16.83V142.45H284.61z"/>
	<path id="XMLID_63_" class="st0" d="M180.29,253.08V142.45h-2.24H-0.02v110.77c0,0.14,0,0.42,0,0.84c0,5.19,1.12,32.95,23.42,67.86
		c24.26,38.28,64.36,50.2,66.04,50.62l0.56,0.14l0.56-0.14c1.68-0.42,41.92-12.34,66.18-50.62
		C181.27,283.79,180.43,254.34,180.29,253.08"/>
	<path id="XMLID_64_" class="st1" d="M84.53,155.77c-0.28,0-7.57-1.4-16.41-1.4c-7.01,0-13.18,2.1-15.98,3.08
		c-2.8-1.12-8.97-3.08-15.98-3.08c-8.69,0-16.12,1.26-16.41,1.4l-0.98,0.14v7.57v32.67v6.45l1.4-0.28c0,0,6.17-1.26,15-1.26
		c6.73,0,13.74,1.82,16.41,2.8L52,204l0.42-0.14c2.8-0.98,9.67-2.8,16.41-2.8c8.97,0,15,1.26,15,1.26l1.4,0.28v-6.45v-32.67v-7.57
		L84.53,155.77z"/>
	<path id="XMLID_65_" class="st2" d="M51.01,159.69c-2.8-0.98-8.55-2.8-14.72-2.8c-6.73,0-12.76,0.84-15,1.12v35.33
		c2.38-0.42,7.43-1.12,14.16-1.12c6.03,0,12.06,1.4,15.56,2.52V159.69L51.01,159.69z"/>
	<path id="XMLID_66_" class="st2" d="M68.12,156.89c-6.31,0-12.2,1.82-14.86,2.94v34.91c3.51-1.12,9.67-2.52,15.7-2.52
		c6.73,0,11.78,0.7,14.16,1.12v-35.33C80.88,157.73,74.99,156.89,68.12,156.89"/>
	<path id="XMLID_67_" class="st0" d="M27.88,162.78c-0.84,0.28-1.4,0.98-1.12,1.82c0.28,0.7,1.12,1.12,2.1,0.98
		c0,0,4.49-0.84,8.27-0.84c3.51,0,7.29,1.54,7.43,1.54c0.84,0.28,1.82-0.14,2.1-0.84c0.28-0.7-0.14-1.54-0.98-1.82
		c-0.14,0-4.49-1.82-8.55-1.82C32.93,161.8,28.16,162.78,27.88,162.78"/>
	<path id="XMLID_68_" class="st0" d="M27.88,169.79c-0.84,0.28-1.4,0.98-1.12,1.82c0.28,0.7,1.12,1.12,2.1,0.98
		c0,0,4.49-0.84,8.27-0.84c3.51,0,7.29,1.54,7.43,1.54c0.84,0.28,1.82-0.14,2.1-0.84c0.28-0.7-0.14-1.54-0.98-1.82
		c-0.14,0-4.49-1.82-8.55-1.82C32.93,168.81,28.16,169.79,27.88,169.79"/>
	<path id="XMLID_69_" class="st0" d="M27.88,176.8c-0.84,0.28-1.4,0.98-1.12,1.82c0.28,0.7,1.12,1.12,2.1,0.98
		c0,0,4.49-0.84,8.27-0.84c3.51,0,7.29,1.54,7.43,1.54c0.84,0.28,1.82-0.14,2.1-0.84c0.28-0.7-0.14-1.54-0.98-1.82
		c-0.14,0-4.49-1.82-8.55-1.82C32.93,175.82,28.16,176.8,27.88,176.8"/>
	<path id="XMLID_70_" class="st0" d="M27.88,183.81c-0.84,0.28-1.4,0.98-1.12,1.82c0.28,0.7,1.12,1.12,2.1,0.98
		c0,0,4.49-0.84,8.27-0.84c3.51,0,7.29,1.54,7.43,1.54c0.84,0.28,1.82-0.14,2.1-0.84c0.28-0.7-0.14-1.54-0.98-1.82
		c-0.14,0-4.49-1.82-8.55-1.82C32.93,182.83,28.16,183.81,27.88,183.81"/>
	<path id="XMLID_71_" class="st0" d="M76.67,162.78c0.84,0.28,1.4,0.98,1.12,1.82c-0.28,0.7-1.12,1.12-2.1,0.98
		c0,0-4.49-0.84-8.27-0.84c-3.51,0-7.29,1.54-7.43,1.54c-0.84,0.28-1.82-0.14-2.1-0.84c-0.28-0.7,0.14-1.54,0.98-1.82
		c0.14,0,4.49-1.82,8.55-1.82C71.63,161.8,76.39,162.78,76.67,162.78"/>
	<path id="XMLID_72_" class="st0" d="M76.67,169.79c0.84,0.28,1.4,0.98,1.12,1.82c-0.28,0.7-1.12,1.12-2.1,0.98
		c0,0-4.49-0.84-8.27-0.84c-3.51,0-7.29,1.54-7.43,1.54c-0.84,0.28-1.82-0.14-2.1-0.84c-0.28-0.7,0.14-1.54,0.98-1.82
		c0.14,0,4.49-1.82,8.55-1.82C71.63,168.81,76.39,169.79,76.67,169.79"/>
	<path id="XMLID_73_" class="st0" d="M76.67,176.8c0.84,0.28,1.4,0.98,1.12,1.82c-0.28,0.7-1.12,1.12-2.1,0.98
		c0,0-4.49-0.84-8.27-0.84c-3.51,0-7.29,1.54-7.43,1.54c-0.84,0.28-1.82-0.14-2.1-0.84c-0.28-0.7,0.14-1.54,0.98-1.82
		c0.14,0,4.49-1.82,8.55-1.82C71.63,175.82,76.39,176.8,76.67,176.8"/>
	<path id="XMLID_74_" class="st0" d="M76.67,183.81c0.84,0.28,1.4,0.98,1.12,1.82c-0.28,0.7-1.12,1.12-2.1,0.98
		c0,0-4.49-0.84-8.27-0.84c-3.51,0-7.29,1.54-7.43,1.54c-0.84,0.28-1.82-0.14-2.1-0.84c-0.28-0.7,0.14-1.54,0.98-1.82
		c0.14,0,4.49-1.82,8.55-1.82C71.63,182.83,76.39,183.81,76.67,183.81"/>
	<path id="XMLID_75_" class="st2" d="M153.37,319.4c-21.87,34.49-58.05,46.97-63.1,48.65c-5.05-1.68-41.08-14.16-62.96-48.65
		S4.6,257.28,4.6,253.5c0-0.28,0-0.42,0-0.42v-39.12h171.48v39.12c0,0,0,0.14,0,0.42C176.09,257.28,175.25,284.91,153.37,319.4"/>
	<path id="XMLID_76_" class="st0" d="M167.95,245.65c-0.84-3.22-2.52-4.63-4.63-5.75c-6.03-3.22-13.74-0.98-20.61,1.4
		c-5.19,1.82-6.73,2.24-12.62,3.22c-4.49,0.7-19.21,2.66-23.84-1.26c-0.7-0.56-1.4-1.82-1.4-2.52c-0.14-1.54,0.56-3.51,1.12-4.21
		c1.12-1.26,3.93-1.96,8.41-1.96l11.5,0.14c0.7,0.98,2.52,2.38,7.15,3.37c7.43,1.54,15.56-0.98,15.56-0.98s-1.4-0.28-2.52-1.12
		c-0.98-0.7-0.84-1.82-0.84-1.82s1.68,0.84,4.07,0.7c2.94-0.14,4.35-1.54,7.15-2.24c2.8-0.7,5.89-0.14,5.89-0.14
		s-2.8-2.94-5.61-3.51c-2.8-0.56-6.17,0.14-6.17,0.14s0.84-0.42,1.82-1.26c0.84-0.7,0.98-1.96,0.98-1.96s-3.37,1.26-6.59,1.12
		c-3.37-0.14-3.08-1.4-9.67-1.54c-4.91-0.14-8.97,2.8-10.66,4.21c-5.33-0.28-9.39-0.56-11.92-0.56c-6.73,0-10.52,1.12-12.9,3.65
		c-1.96,2.1-2.8,4.91-2.52,8.27c0.28,2.66,1.4,4.77,3.51,6.45c6.31,5.19,23,3.65,29.02,2.52c6.59-1.12,8.69-1.68,12.48-2.94
		l0.28-0.14c2.94-0.98,12.06-4.07,15.84-1.96c0.84,0.42,1.26,1.12,1.68,2.38c0.14,0.56,0.28,0.98,0.28,1.4c0,0.84-0.28,1.4-0.7,2.1
		c-3.51,4.21-16.55,4.91-22.15,5.33c-0.56-0.14-4.35-0.98-9.39-0.98c-3.37,0-6.17,0.14-9.11,0.42c-5.47,0.42-11.08,0.84-20.33-0.28
		c-4.35-0.56-8.41-1.26-11.5-2.24c-0.14-1.12-0.7-2.24-1.82-3.51c2.24,0.7,5.19-1.68,6.03-2.94c0-0.14-3.93-1.12-4.21-3.79
		c0-0.14,2.8,0.28,3.93-3.65c-2.8-1.54-1.96-2.1-3.22-3.93c-1.12-1.68-2.94-2.52-5.05-2.52c0.84-0.14,0.98,0,1.82-0.42
		c1.26-0.56,2.1-2.24,3.22-2.24c-2.38-3.79-8.97-4.35-11.78-3.51c0.7-0.84,1.82-1.82,1.82-3.08c-3.65,0.98-7.15-0.84-10.8-0.14
		c-3.08,0.56-4.77,1.82-5.75,4.63l0,0h-0.7l0,0c-0.98-2.94-2.66-4.07-5.75-4.63c-3.65-0.7-7.29,1.26-10.8,0.14
		c0,1.26,1.12,2.1,1.82,3.08c-2.66-0.84-9.25-0.28-11.78,3.51c1.26,0,2.1,1.54,3.22,2.24c1.12,0.56,1.26,0.42,1.82,0.42
		c-2.1,0-3.79,0.84-5.05,2.52c-1.4,1.96-0.42,2.52-3.22,3.93c1.12,3.93,3.93,3.51,3.93,3.65c-0.28,2.52-4.21,3.65-4.21,3.79
		c0.84,1.26,3.79,3.65,6.03,2.94c-1.82,2.1-2.1,3.65-1.68,5.75c-2.8-2.1-5.61-4.63-7.15-6.59c-0.42-0.56-1.54-4.21-2.24-6.59
		l-0.56-1.96l-0.28-1.12c-0.84-3.22-1.82-6.03-3.22-6.45c-0.84-0.14-1.54-0.28-2.24-0.14c-0.56-0.84-1.26-1.68-2.1-1.96
		c-1.68-0.56-2.52-0.14-2.52-0.14s1.4,0.98,1.82,2.1c0.14,0.28,0.14,0.56,0.28,0.7c-0.28,0.14-0.56,0.42-0.84,0.56l-0.14,0.14
		c-0.14,0.14-0.42,0.28-0.7,0.56c-0.14,0-0.28,0-0.42-0.14c-1.82-0.28-2.52,0.28-2.52,0.28s0.98,0.42,1.68,1.12
		c-0.56,0.84-1.12,1.96-1.12,3.37c0,0.14,0,0.28,0,0.42c-1.68,0.14-2.38,0.7-2.38,0.7s1.68,0.42,2.52,1.26l0.28,0.28L14.84,242
		c-0.28,0.56-0.56,1.12-0.56,1.82c0,1.54,0.84,3.08,1.96,4.21c0,0,3.08,2.52,3.37,2.8c1.26,2.66,2.52,5.05,3.51,6.17
		c0.28,0.28,2.1,3.65,4.21,7.01c0.28,0.42,0.56,0.98,0.84,1.4c0.42,2.1,0.98,4.77,1.12,6.73c0.42,3.65,0,7.85,0,7.85
		s2.38-0.14,3.51-1.68c0,0,0.84,2.52,0.7,5.47c-0.14,2.1-0.7,5.19-0.7,5.19s2.38-1.26,4.07-2.8c0.84-0.84,1.82-2.1,2.38-2.94
		c1.96,1.26,7.43-0.7,10.24-1.82c0.56,1.12,1.26,2.24,2.24,3.65c0.42-1.68,2.24-2.52,2.94-3.79c0.28,0,0.56,0,0.7,0
		c0.14,1.82-0.42,3.51,1.26,6.87c0.42,0.98,2.8,4.49,4.63,6.31c-0.7,3.08-1.96,8.69-3.22,13.32c-1.54,5.19-2.66,7.85-3.37,9.11
		c-1.96,0.14-5.61,0.28-6.73,0.14c-2.8-0.14-4.77,0.42-6.03,1.68l-0.28,0.28c-0.98,0.14-2.1,0.42-2.66,1.12
		c-1.26,1.4-1.26,2.24-1.26,2.24s1.54-0.84,2.66-0.84h0.28v0.28c0,0.28,0.14,0.7,0.42,1.26c-0.14,0.14-0.42,0.28-0.42,0.42
		c-1.12,1.4-0.98,2.38-0.98,2.38s1.4-0.98,2.52-0.98c0.42,0.56,0.7,1.12,1.12,1.68l-0.14,0.14c-0.98,1.54-0.84,2.38-0.84,2.38
		s1.12-0.84,2.1-1.12c0.42,0.42,0.7,0.84,0.98,1.12c1.68,1.4,5.75,0.56,10.94-0.84l3.22-0.84c2.24-0.42,3.65-1.4,4.77-3.08
		c0.28-0.42,0.42-1.12,0.84-2.1l0.28-0.84c0.7-1.96,1.26-3.37,2.66-5.61c0,0,1.4-2.38,3.37-5.47c1.68-1.4,3.65-3.08,5.19-4.07
		c2.24-1.54,6.73-3.79,6.73-3.79s-1.26-1.96-2.94-2.24c0,0,2.24-2.38,4.21-3.22c2.24-0.98,5.05-1.4,5.05-1.4s-0.98-2.1-2.66-3.08
		c0.7-0.28,1.26-0.56,1.96-1.12c3.79-2.52,6.59-2.38,9.25-1.68c0.14-1.68-0.28-2.8-1.82-3.79c1.26-0.56,2.52-0.98,3.93-1.26
		c0.84,1.54,1.82,3.08,2.24,3.79c1.96,2.8,4.91,6.59,7.29,8.97c0,0,0.14,0.14,0.14,0.28c0,0.98-1.26,3.79-1.96,5.33l-0.56,1.4
		c0,0-2.38,5.61-3.08,7.29c-1.4,0.14-5.47,0.28-6.87,0.28c-2.66-0.14-4.63,0.42-5.89,1.68c-0.14,0.14-0.28,0.28-0.42,0.42
		c-0.98,0.14-2.24,0.56-2.8,1.26c-1.12,1.4-1.12,2.38-1.12,2.38s1.4-0.98,2.52-0.98c0.14,0,0.28,0,0.56,0c0,0.28,0.14,0.7,0.42,1.26
		c-0.28,0.14-0.56,0.42-0.7,0.7c-0.98,1.54-0.84,2.38-0.84,2.38s1.4-1.12,2.52-1.26h0.14c0.28,0.42,0.56,0.84,0.84,1.26
		c-0.14,0.14-0.14,0.28-0.28,0.28c-0.98,1.54-0.84,2.38-0.84,2.38s1.26-0.98,2.38-1.26c0.28,0.42,0.7,0.7,0.98,0.98
		c1.54,1.4,4.91,0.56,9.53-0.7l3.22-0.84c2.24-0.42,3.65-1.26,4.63-2.94l0.84-1.82c0.42-0.98,0.84-1.96,1.26-2.52
		c0.56-0.84,1.12-1.82,1.68-2.94c0.7-0.7,1.54-1.26,1.96-1.68c1.4-1.12,5.19-3.22,5.19-3.22s-0.7-1.68-2.24-1.82
		c0,0,1.54-1.68,3.22-2.66c1.26-0.7,3.79-1.12,3.79-1.12s-1.68-1.54-3.08-2.1c-0.56-0.28-1.26-0.42-1.82-0.56
		c-0.14-0.7-0.42-1.54-1.26-2.66c-1.26-1.96,0.56-6.31,1.96-8.83c0.7,0.98,1.96,2.66,4.07,4.91c0,0,6.59,7.29,8.13,8.83
		c-0.28,1.12-1.26,4.77-2.66,8.83c-1.12,2.94-2.52,5.89-3.37,7.43c-1.54,0.14-5.19,0.28-6.59,0.28c-2.66-0.14-4.63,0.42-5.89,1.68
		c-0.14,0.14-0.42,0.42-0.56,0.7c-0.84,0.28-1.82,0.56-2.38,1.26c-1.12,1.4-0.98,2.38-0.98,2.38s1.12-0.98,2.52-1.12h0.14
		c0,0.28,0.28,0.7,0.56,1.26c-0.28,0.14-0.56,0.42-0.7,0.7c-0.98,1.54-0.84,2.38-0.84,2.38s1.4-1.12,2.52-1.26h0.14
		c0.42,0.56,0.7,1.12,1.12,1.54l0,0c-0.98,1.54-0.84,2.38-0.84,2.38s0.98-0.84,1.96-1.12c0.28,0.28,0.56,0.56,0.84,0.84
		c1.54,1.4,5.05,0.56,9.53-0.7l3.22-0.84c2.24-0.42,3.65-1.26,4.63-2.94c0.42-0.7,2.52-5.47,3.08-6.87c0.98-2.38,2.1-4.91,3.22-7.29
		c0.56-0.42,1.12-0.84,1.4-1.12c1.82-1.26,5.75-3.51,5.75-3.51s-0.84-1.68-2.24-1.82c0,0,1.54-1.54,3.08-2.52
		c1.4-0.98,4.07-1.4,4.07-1.4s-1.82-1.4-3.22-1.96c-0.84-0.28-1.82-0.56-2.66-0.7c-0.28-1.12-0.84-1.54-1.68-1.96
		c-0.7-0.42-1.82-0.84-3.37-2.66c-1.96-2.38-2.24-6.87-2.24-11.36c0-0.98,0-1.96,0-2.94v-4.35c-0.14-5.05-0.84-8.55-1.54-10.94
		c6.59-0.56,18.65-1.96,23.56-7.99c1.54-1.82,2.24-3.93,2.24-6.31C168.52,247.89,168.23,246.77,167.95,245.65"/>
	<path id="XMLID_77_" class="st3" d="M120.7,300.61c0.84-0.84,1.26-1.26,1.26-1.82s-0.28-1.12-0.98-2.1c-0.56-0.7-0.7-1.68-0.7-2.66
		c0-3.22,2.1-7.15,2.94-8.55c-0.28-0.28-0.56-0.7-0.98-1.26c-0.28-0.14-0.42-0.28-0.56-0.42c-0.56-0.42-1.96-1.54-2.8-2.8
		c-0.14-0.14-0.28-0.42-0.42-0.56c-1.82,0-6.03-0.14-10.52,1.12c1.4,0.84,1.68,1.82,1.68,3.08c-2.94-0.56-5.33-0.7-7.57-0.28
		c0.7,1.26,1.54,2.66,1.96,3.08c1.96,2.66,4.77,6.45,7.15,8.69c0.42,0.42,0.56,0.84,0.56,1.4c0,1.4-0.84,3.51-1.96,6.03l-0.56,1.4
		l-3.51,8.13h-0.56c-0.28,0-5.75,0.42-7.57,0.28c-1.96-0.14-3.51,0.28-4.35,0.98c0.14,0.42,0.14,0.84,0,1.26
		c-0.14,0.56-0.56,0.98-0.84,1.12c0,0.14,0.14,0.14,0.14,0.28c1.12-0.42,2.1-0.42,2.1-0.42s0.56,0.84,0.42,1.82
		c-0.14,0.7-0.56,1.12-0.84,1.4c0.14,0.14,0.14,0.14,0.28,0.28c1.26-0.56,2.52-0.56,2.52-0.56s0.56,0.98,0.42,1.96
		c-0.14,0.56-0.42,0.84-0.7,1.12c1.54,0.42,5.33-0.56,7.57-1.26l3.37-0.84c1.82-0.28,2.8-0.98,3.51-2.24l0.7-1.68
		c0.42-0.98,0.98-2.1,1.4-2.8c1.12-1.68,2.24-4.07,3.37-6.45C118.46,304.12,119.86,301.45,120.7,300.61"/>
	<polyline id="XMLID_78_" class="st3" points="55.22,279.44 55.22,279.58 55.22,279.58 55.22,279.44 	"/>
	<path id="XMLID_79_" class="st1" d="M48.07,270.04c-1.12,1.54-2.94,2.38-5.47,2.66c0.42-2.52,0-4.21-0.84-6.17
		c-0.84-1.68-2.94-5.19-3.65-7.15c-0.14-0.56-0.42-1.12-0.56-1.54c-3.51-2.52-7.29-5.61-9.25-8.13c-0.42-0.56-1.12-2.8-2.52-7.15
		l-0.56-1.96l-0.28-1.12c-0.84-3.22-1.54-5.05-2.1-5.19c-0.28-0.14-0.7-0.14-0.98-0.14l0,0c0,0-0.14,0.98-1.82,0.98
		c-0.42,0-0.7-0.14-0.98-0.28c-0.14,0.14-0.28,0.14-0.42,0.28l-0.14,0.14l-0.28,0.14c0.98,0.84,1.68,2.1,1.68,2.1
		s-0.42,0.98-1.68,1.26c-0.98,0.14-1.68-0.56-1.68-0.56s0-0.28-0.14-0.84c-0.42,0.7-0.56,1.68-0.42,2.66
		c1.26,0.7,2.38,1.82,2.38,1.82s0,0.98-1.4,1.68c-0.56,0.28-0.98,0.14-1.4,0c-0.14,0.98,0.42,2.38,1.4,3.37l3.65,2.94l0.14,0.14
		c1.12,2.52,2.52,5.05,3.22,5.89c0.28,0.28,1.4,2.1,4.35,7.29c3.93,6.73,9.96,17.11,11.5,18.79c0.56,0.56,4.63-0.42,8.69-1.96
		C47.37,275.79,48.63,273.41,48.07,270.04"/>
	<path id="XMLID_80_" class="st1" d="M166.41,246.07c-0.7-2.66-1.96-3.79-3.93-4.77c-5.33-2.8-12.76-0.7-19.35,1.54
		c-5.61,1.82-7.15,2.38-12.9,3.22c-5.89,0.84-20.19,2.52-25.24-1.68c-0.98-0.84-1.96-2.38-1.96-3.65c-0.14-1.96,0.7-4.49,1.54-5.33
		c1.54-1.68,4.49-2.52,9.67-2.52c0,0,7.71,0.14,11.92,0.14l0.84-0.84l-0.84-0.98c-5.33-0.42-9.53-0.56-11.92-0.56
		c-6.17,0-9.67,0.98-11.78,3.08c-1.68,1.82-2.38,4.21-2.1,7.01c0.14,2.1,1.12,3.93,2.8,5.33c5.33,4.35,20.89,3.37,27.62,2.24
		c6.59-1.12,8.55-1.68,12.2-2.94l0.28-0.14c3.51-1.12,12.76-4.21,17.11-1.96c1.12,0.7,1.96,1.68,2.38,3.37
		c0.56,1.96,0.28,3.65-0.84,4.91c-3.93,4.77-16.55,5.47-23.42,5.89h-0.14h-0.14c0,0-4.07-0.98-9.11-0.98
		c-3.22,0-6.03,0.14-8.97,0.42c-5.47,0.42-11.22,0.84-20.75-0.28c-4.21-0.42-8.13-1.26-11.36-2.1c-0.14,1.26-0.7,2.66-1.4,4.63
		c-0.7,1.96-2.8,5.33-3.65,7.15c-0.98,1.96-1.4,3.65-0.84,6.17c-2.52-0.28-4.49-1.12-5.47-2.66c-0.7,4.63,1.96,7.43-3.65,15
		c-0.56-2.24-3.65-2.94-3.37-5.61c-0.98,2.66,0.56,4.21-1.68,8.69c-0.56,1.12-3.65,5.75-5.33,7.01c-0.7,3.22-1.82,8.55-3.08,13.04
		c-1.68,6.03-3.08,8.83-3.79,9.82l-0.28,0.42h-0.42c-1.82,0.14-6.03,0.28-7.29,0.14c-1.82-0.14-3.37,0.14-4.21,0.84
		c0.14,0.42,0.14,1.12-0.14,1.54c-0.28,0.56-0.84,0.84-0.98,0.98c0,0.14,0.14,0.14,0.14,0.28c1.26-0.28,2.38-0.42,2.38-0.42
		s0.56,0.98,0,2.24c-0.14,0.56-0.56,0.7-0.7,0.84c0.14,0.14,0.28,0.28,0.42,0.56c1.26-0.56,2.8-0.7,2.8-0.7s0.56,0.7,0.14,2.24
		c-0.14,0.42-0.42,0.7-0.56,0.84c1.68,0.56,6.45-0.7,8.97-1.4l3.37-0.84c1.82-0.28,2.8-0.98,3.65-2.24c0.14-0.28,0.42-1.12,0.7-1.82
		l0.28-0.98c0.7-2.1,1.4-3.51,2.8-5.89c3.37-5.47,13.6-22.01,14.02-23.42v-0.28c0-0.84-0.42-2.8-0.84-4.07l-0.28-0.84
		c0,0,32.81-9.53,34.77-10.1c-0.7-1.12-1.96-3.51-1.96-3.51l1.26-1.12c0.14,0.14,2.66,1.96,4.07,3.37c1.26,1.26,2.38,3.08,3.65,5.05
		l0.7,0.98c1.4,2.24,2.8,3.93,2.8,3.93l0,0l0,0c0,0,1.12,1.96,4.49,5.75l8.69,9.53l-0.14,0.42c0,0-0.98,4.49-2.8,9.39
		c-1.12,3.22-2.94,6.73-3.65,7.99l-0.28,0.42h-0.42c-1.68,0.14-5.75,0.28-7.15,0.28c-1.82-0.14-3.22,0.14-4.21,0.84
		c0.14,0.42,0.28,1.12,0,1.68c-0.28,0.56-0.7,0.84-0.98,1.12l0.14,0.28c1.12-0.42,2.1-0.42,2.1-0.42s0.56,0.84,0.42,1.96
		c-0.14,0.7-0.56,1.12-0.84,1.26c0.14,0.14,0.28,0.28,0.28,0.42c1.26-0.56,2.94-0.84,2.94-0.84s0.56,0.7,0.42,1.96
		c-0.14,0.56-0.42,0.84-0.7,1.12c1.68,0.14,5.05-0.84,7.29-1.4l3.37-0.84c1.82-0.28,2.8-0.98,3.51-2.24
		c0.28-0.56,2.24-4.91,2.94-6.59c2.1-5.05,5.05-11.5,7.01-14.86l1.12-1.68c0.7-0.98,1.26-1.82,1.12-2.38c0-0.84-0.14-0.84-0.84-1.12
		c-0.84-0.42-2.1-0.98-3.79-3.08c-2.8-3.37-2.8-9.67-2.66-15.28v-4.21c-0.14-5.61-0.98-9.25-1.82-11.36l-0.28-0.98l0.98-0.14
		c6.03-0.56,18.65-1.68,23.42-7.43C166.69,251.82,167.25,249.15,166.41,246.07"/>
	<path id="XMLID_81_" class="st2" d="M133.6,180.59c0.7,0.98,1.26,1.96,1.82,3.08c-0.56,0.14-1.12,0.14-1.82,0.14
		c-0.56,0-1.12,0-1.82-0.14C132.34,182.55,132.9,181.57,133.6,180.59"/>
	<path id="XMLID_89_" class="st1" d="M126.31,180.31c-1.26-0.98-2.38-2.24-3.22-3.65l0,0c1.68,0,3.22,0.28,4.77,0.98
		C127.29,178.34,126.73,179.32,126.31,180.31 M115.93,179.04c1.82,3.79,4.77,7.01,8.55,8.97c0,0.28,0,0.42,0,0.7
		c0,4.07,1.26,7.99,3.51,11.08c-1.54,0.7-3.08,0.98-4.77,0.98c-6.59,0-12.06-5.47-12.06-12.06
		C111.17,184.65,112.99,181.29,115.93,179.04 M144.12,176.52L144.12,176.52c-0.7,1.4-1.82,2.66-3.08,3.65
		c-0.42-0.98-0.98-1.82-1.54-2.66C140.89,176.94,142.43,176.52,144.12,176.52 M123.23,168.95c-0.56,0-0.98,0-1.54,0.14
		c0.7-6.03,5.75-10.52,11.92-10.52c6.17,0,11.22,4.63,11.92,10.52l-1.54-0.14c-3.79,0-7.29,0.98-10.38,2.94
		C130.66,170.07,127.01,168.95,123.23,168.95 M142.72,188.02c3.79-1.96,6.73-5.19,8.55-8.97c3.08,2.24,4.77,5.75,4.77,9.67
		c0,6.59-5.47,12.06-12.06,12.06c-1.68,0-3.22-0.28-4.77-0.98c2.24-3.22,3.51-7.01,3.51-11.08V188.02z M132.06,190.12l1.54,0.14
		c0.56,0,0.98,0,1.54-0.14c-0.14,1.54-0.7,3.08-1.54,4.49C132.9,193.35,132.34,191.8,132.06,190.12 M153.23,171.33
		c0-0.14,0-0.42,0-0.56c0-10.8-8.83-19.63-19.63-19.63s-19.63,8.83-19.63,19.63v0.7c-6.17,3.37-10.52,9.82-10.52,17.39
		c0,10.8,8.83,19.63,19.63,19.63c3.79,0,7.29-1.12,10.52-3.08c3.08,1.96,6.59,3.08,10.38,3.08c10.8,0,19.63-8.83,19.63-19.63
		C163.75,181.43,159.54,174.7,153.23,171.33"/>
	<path id="XMLID_90_" class="st2" d="M137.39,189.98c1.12-0.28,2.1-0.56,3.22-0.98c0,3.51-1.12,6.87-3.22,9.67
		c-0.84-0.56-1.68-1.26-2.38-2.1C136.27,194.61,137.11,192.36,137.39,189.98"/>
	<path id="XMLID_91_" class="st2" d="M133.6,153.38c9.53,0,17.39,7.85,17.39,17.39c0,9.67-7.85,17.39-17.39,17.39l-1.54-0.14
		c0-1.12,0.28-2.1,0.56-3.08h0.98c7.85,0,14.3-6.45,14.3-14.3c0-7.85-6.45-14.3-14.3-14.3c-7.43,0-13.6,5.61-14.16,13.04
		c-1.12,0.28-2.24,0.56-3.22,0.98C116.35,160.96,124.07,153.38,133.6,153.38"/>
	<path id="XMLID_92_" class="st2" d="M144.12,171.33l1.54,0.14c0,1.12-0.28,2.1-0.56,3.08h-0.98c-2.1,0-4.21,0.56-6.03,1.4
		c-0.7-0.84-1.54-1.68-2.38-2.38C138.23,172.03,141.03,171.33,144.12,171.33"/>
	<path id="XMLID_93_" class="st2" d="M123.23,206.11c-9.67,0-17.39-7.85-17.39-17.39c0-9.53,7.85-17.39,17.39-17.39
		c6.87,0,13.04,3.93,15.84,10.24c-0.98,0.42-1.96,0.84-2.94,0.98c-2.38-4.91-7.29-8.13-12.9-8.13c-7.85,0-14.3,6.45-14.3,14.3
		c0,7.85,6.45,14.3,14.3,14.3c2.1,0,4.21-0.56,6.17-1.4c0.7,0.84,1.54,1.68,2.38,2.38C129.11,205.4,126.17,206.11,123.23,206.11"/>
	<path id="XMLID_94_" class="st2" d="M120.7,176.94c1.12,2.24,2.66,4.07,4.77,5.61c-0.42,1.12-0.56,2.1-0.84,3.22
		c-3.08-1.82-5.47-4.49-6.87-7.71C118.74,177.5,119.72,177.08,120.7,176.94"/>
	<path id="XMLID_95_" class="st2" d="M144.12,206.11c-9.67,0-17.39-7.85-17.39-17.39c0-3.65,1.12-7.15,3.22-10.1
		c0.84,0.56,1.68,1.26,2.38,2.1c-1.54,2.38-2.38,5.05-2.38,7.99c0,7.85,6.45,14.3,14.3,14.3c7.85,0,14.3-6.45,14.3-14.3
		c0-4.77-2.24-8.97-6.17-11.64c0.42-0.98,0.56-2.1,0.84-3.22c5.19,3.08,8.55,8.83,8.55,15C161.5,198.39,153.65,206.11,144.12,206.11
		"/>
	<path id="XMLID_96_" class="st1" d="M75.55,240.6c0.98-0.7,3.51-2.8,2.24-5.19c-1.4-2.66-4.63-1.54-5.61-1.12
		c-0.14-0.14-7.29-3.22-7.29-3.22l-2.8,3.22l-2.8-3.22c-0.14,0-7.15,3.08-7.29,3.22c-0.98-0.42-4.21-1.4-5.61,1.12
		c-1.26,2.52,1.12,4.49,2.24,5.19l0,0l-2.24,4.07l6.73,7.99v5.19c0,0,2.66,1.82,2.8,1.82c0.42,1.96,0.56,3.08,0.98,4.07
		c0.14,0.28,2.66,1.12,5.19,1.12h0.14c2.52,0,5.05-0.84,5.19-1.12c0.42-1.12,0.56-2.1,0.98-4.07c0.14,0,2.8-1.82,2.8-1.82v-5.19
		l6.73-7.99L75.55,240.6L75.55,240.6"/>
	<polygon id="XMLID_97_" class="st0" points="58.73,241.02 58.45,244.38 52.56,241.02 	"/>
	<path id="XMLID_98_" class="st0" d="M66.44,244.52c0,0.28,0.98,8.27,0.98,8.27s-4.35,2.38-4.63,2.52c0,0.28,0,2.8,0,2.94
		c0.14,0.14,0.98,0.7,1.82,1.12c1.4,0.56,2.94,0.28,2.94,0.28l0.42-0.14l-0.28,1.12h-0.14c0,0-1.68,0.28-3.08-0.14
		c-1.12-0.42-1.82-0.84-1.96-0.98h-0.7c-0.14,0.14-0.84,0.56-1.96,0.98c-1.4,0.42-2.94,0.14-3.08,0.14h-0.14l-0.28-1.12l0.42,0.14
		c0,0,1.54,0.42,2.94-0.28c0.84-0.28,1.54-0.98,1.82-1.12c0-0.14,0-2.8,0-2.94c-0.14-0.14-4.49-3.22-4.49-3.22s7.71,0,8.13,0v-10.8
		h6.45h0.84C72.19,241.16,66.58,244.38,66.44,244.52"/>
</g>
</svg>
